<svg fill="#000000" xmlns="http://www.w3.org/2000/svg"  viewBox="0 0 50 50" width="25px" height="25px" baseProfile="basic"><path d="M20.714,30.557c-3.069,0-5.557-2.488-5.557-5.557c0-3.069,2.488-5.557,5.557-5.557c3.069,0,5.557,2.488,5.557,5.557	C26.271,28.069,23.783,30.557,20.714,30.557z"/><path d="M29.577,30.289c-1.519,0-2.751-2.368-2.751-5.289c0-2.921,1.231-5.289,2.751-5.289s2.751,2.368,2.751,5.289	C32.328,27.921,31.096,30.289,29.577,30.289z"/><path d="M33.85,29.724c-0.528,0-0.957-2.115-0.957-4.724s0.428-4.724,0.957-4.724c0.528,0,0.957,2.115,0.957,4.724	S34.378,29.724,33.85,29.724z"/><path d="M40,17.77v14.507C40,36.543,36.543,40,32.277,40H17.723C13.457,40,10,36.543,10,32.277V17.723	C10,13.457,13.457,10,17.723,10H32.23C36.521,10,40,13.479,40,17.77z M39,33V17c0-3.314-2.686-6-6-6H17c-3.314,0-6,2.686-6,6v16	c0,3.314,2.686,6,6,6h16C36.314,39,39,36.314,39,33z"/></svg>